# xmcd
#
# Track frame offsets:
# 150
# 24817
# 50148
# 76613
# 100482
# 131236
# 154960
# 181280
# 207294
# 235645
# 267213
# 293481
# 322915
#
# Disc length: 4729 seconds
#
#
# Revision: 0
# Processed by: cddbd v1.5.2PL0 Copyright (c) Steve Scherf et al.
# Submitted via: FreeRIP 2.945 
#
DISCID=a812770d
DTITLE=Herriot-J1972 - Great-Small08
DYEAR=1972
DGENRE=Jungle
TTITLE0=GS 0801
TTITLE1=GS 0802
TTITLE2=GS 0803
TTITLE3=GS 0804
TTITLE4=GS 0805
TTITLE5=GS 0806
TTITLE6=GS 0807
TTITLE7=GS 0808
TTITLE8=GS 0809
TTITLE9=GS 0810
TTITLE10=GS 0811
TTITLE11=GS 0812
TTITLE12=GS 0713
EXTD=All Creatures Great and Small 12 CDs\nby James Harriot read by ChristopherTimothy\nAudio Renassance - Jungle - Country
EXTT0=
EXTT1=
EXTT2=
EXTT3=
EXTT4=
EXTT5=
EXTT6=
EXTT7=
EXTT8=
EXTT9=
EXTT10=
EXTT11=
EXTT12=
PLAYORDER=
